<svg width="48" height="48" viewBox="0 0 48 48" fill="none" xmlns="http://www.w3.org/2000/svg">
<g clip-path="url(#clip0_1673_31620)">
<path d="M26.7812 14.5605L19.5371 7.31836C18.6875 6.46876 17.5576 6 16.3564 6H4.59857C2.11713 6 0.0985718 8.01954 0.0985718 10.5V35.5C0.0985718 37.9805 2.11713 40 4.59857 40H23.5986C26.08 40 28.0986 37.9805 28.0986 35.5V17.7422C28.0986 16.5586 27.6191 15.3984 26.7812 14.5605ZM24.6591 16.6816C24.7504 16.7729 24.8068 16.8892 24.8712 17H18.5986C17.7714 17 17.0986 16.3262 17.0986 15.5V9.22802C17.2089 9.29248 17.3249 9.34838 17.416 9.43944L24.6591 16.6816ZM23.5986 37H4.59857C3.77143 37 3.09857 36.3262 3.09857 35.5V10.5C3.09857 9.67382 3.77143 9 4.59857 9H14.0986V15.5C14.0986 17.9805 16.1171 20 18.5986 20H25.0986V35.5C25.0986 36.3262 24.4257 37 23.5986 37Z" fill="#3B62FB"/>
</g>
<defs>
<clipPath id="clip0_1673_31620">
<rect width="48" height="48" fill="white"/>
</clipPath>
</defs>
</svg>
