<?xml version="1.0" encoding="UTF-8"?><svg width="64" height="64" viewBox="0 0 64 64" fill="none" xmlns="http://www.w3.org/2000/svg">
<g clip-path="url(#clip0_21_8638)">
<path d="M20 60.7936C19.6812 60.7936 19.3624 60.7311 19.0593 60.6029C18.1749 60.2248 17.6 59.3561 17.6 58.3936V47.9936H15.2C8.58433 47.9936 3.19995 42.6092 3.19995 35.9936V18.3936C3.19995 11.7779 8.58433 6.39355 15.2 6.39355H27.8499C29.1749 6.39355 30.2499 7.46856 30.2499 8.79355C30.2499 10.1185 29.1749 11.1936 27.8499 11.1936H15.2C11.2312 11.1936 7.99995 14.4248 7.99995 18.3936V35.9936C7.99995 39.9623 11.2312 43.1936 15.2 43.1936H20C21.3249 43.1936 22.4 44.2686 22.4 45.5936V52.7498L31.6281 43.8654C32.075 43.4342 32.6718 43.1936 33.2937 43.1936H48.7999C52.7687 43.1936 55.9999 39.9623 55.9999 35.9936V31.9248C55.9999 30.5998 57.075 29.5248 58.3999 29.5248C59.7249 29.5248 60.7999 30.5998 60.7999 31.9248V35.9936C60.7999 42.6092 55.4156 47.9936 48.7999 47.9936H34.2624L21.6656 60.1217C21.2093 60.5623 20.6093 60.7936 20 60.7936Z" fill="#292929"/>
<path d="M42.4905 29.0658C41.8874 29.0658 41.2812 28.9096 40.7343 28.594C39.403 27.8283 38.7281 26.3065 39.0499 24.8065L40.5218 18.0065L35.8499 12.8533C34.8186 11.7158 34.6405 10.0627 35.4062 8.73459C36.1749 7.40646 37.7124 6.73146 39.1937 7.05021L45.9937 8.52208L51.1468 3.85021C52.2843 2.82208 53.9468 2.64707 55.2655 3.40646C56.5968 4.1721 57.2718 5.69395 56.9499 7.19395L55.478 13.994L60.1499 19.1471C61.1812 20.2846 61.3593 21.9377 60.5936 23.2658C59.8249 24.5971 58.2999 25.2783 56.8062 24.9502L50.0062 23.4783L44.853 28.1502C44.1874 28.7533 43.3437 29.0658 42.4905 29.0658ZM42.0874 12.5877L44.5187 15.2689C45.2749 16.0939 45.5905 17.2564 45.353 18.3689L44.5874 21.9127L47.2687 19.4814C48.0968 18.7252 49.2718 18.4127 50.3687 18.6471L53.9124 19.4127L51.4811 16.7315C50.7249 15.9065 50.4093 14.744 50.6468 13.6315L51.4124 10.0877L48.7312 12.519C47.9062 13.2783 46.7374 13.5971 45.6312 13.3533L42.0874 12.5877Z" fill="#292929"/>
<path d="M25.3845 36.8124C24.972 36.8124 24.5595 36.7062 24.1845 36.4905C23.2814 35.9686 22.8189 34.9249 23.0376 33.9061L23.6064 31.2811L21.8032 29.2936C21.1032 28.5218 20.9813 27.3843 21.5032 26.4811C22.0251 25.578 23.0751 25.1342 24.0876 25.3342L26.7126 25.903L28.7001 24.0998C29.4751 23.3998 30.6063 23.278 31.5126 23.7998C32.4157 24.3217 32.8782 25.3655 32.6595 26.3842L32.0907 29.0092L33.8939 30.9967C34.5939 31.7686 34.7158 32.9061 34.1939 33.8092C33.672 34.7124 32.6189 35.1655 31.6095 34.9561L28.9845 34.3874L26.997 36.1905C26.5439 36.5999 25.9657 36.8124 25.3845 36.8124Z" fill="#292929"/>
</g>
<defs>
<clipPath id="clip0_21_8638">
<rect width="64" height="64" fill="white"/>
</clipPath>
</defs>
</svg>
